<?xml version="1.0" encoding="utf-8"?>
<!-- Generator: Adobe Illustrator 23.0.0, SVG Export Plug-In . SVG Version: 6.00 Build 0)  -->
<svg version="1.1" id="Layer_1" xmlns="http://www.w3.org/2000/svg" xmlns:xlink="http://www.w3.org/1999/xlink" x="0px" y="0px"
	 viewBox="0 0 290 80" style="enable-background:new 0 0 290 80;" xml:space="preserve">
<style type="text/css">
	.st0{fill:#FFFFFF;}
	.st1{fill:#FFE801;}
</style>
<path class="st0" d="M31.3,18.8l-3,17.2h-9.2l3-17.2H8.3L0,66.4h13.8l3.3-18.7h9.2L23,66.4h13.8l8.3-47.6L31.3,18.8z M82.9,20.2
	c-1.1-0.8-2.4-1.4-3.8-1.6c-1.7-0.3-3.4-0.4-5.2-0.4H62.5c-1.8,0-3.5,0.1-5.3,0.4c-1.5,0.3-3,0.8-4.3,1.6c-1.3,0.8-2.3,1.8-3.1,3.1
	c-0.9,1.6-1.5,3.3-1.8,5.1l-4.9,27.8c-0.3,1.7-0.3,3.5,0,5.3c0.3,1.3,0.9,2.4,1.9,3.3c1.1,0.9,2.4,1.4,3.7,1.7
	c1.8,0.3,3.5,0.5,5.3,0.5h11.4c1.8,0,3.7-0.1,5.5-0.5c1.5-0.3,3-0.8,4.3-1.7c1.3-0.8,2.3-1.9,3.1-3.3c0.9-1.6,1.5-3.4,1.8-5.3
	L85,28.5c0.4-1.7,0.4-3.5,0-5.1C84.7,22.1,83.9,21,82.9,20.2z M66.6,54.7h-9.4l4.3-24.3h9.4L66.6,54.7z M88.1,30.9h10.7l-6.2,35.5
	h13.8l6.2-35.5h10.7l2.1-12.1H90.2L88.1,30.9z M171.2,18.8L162,44.9l0-26.1H151l-9,26.1l-0.2-26.1h-13.9l2.6,47.6h12.4l9.3-24.9
	l0.7,24.9h12l19.2-47.6L171.2,18.8z M248.9,21c-1.1-0.9-2.4-1.4-3.7-1.7c-1.7-0.3-3.5-0.5-5.2-0.5h-22.8l-8.3,47.6h13.8l2.8-16.3
	h1.9l5.3,16.3h15.1l-6.9-18.3h0.4c1-0.3,2-0.7,2.9-1.2c0.9-0.5,1.7-1.1,2.4-1.9c0.7-0.8,1.3-1.7,1.7-2.7c0.5-1.1,0.9-2.3,1.1-3.6
	l1.6-9.2c0.4-1.7,0.4-3.5,0-5.3C250.6,23,249.9,21.8,248.9,21z M236.8,32.3l-0.9,5.2c-0.1,0.3-0.2,0.6-0.3,0.9
	c-0.1,0.3-0.3,0.5-0.6,0.7c-0.2,0.2-0.5,0.3-0.8,0.4c-0.3,0.1-0.7,0.2-1,0.2h-5.8l1.6-9.6h5.8c0.3,0,0.7,0,1,0.2
	c0.2,0.1,0.5,0.2,0.7,0.4c0.2,0.2,0.3,0.4,0.3,0.7C236.8,31.7,236.8,32,236.8,32.3z M288.1,29.9l1.9-11.1h-30l-8.3,47.6h30.5
	l1.9-11.1h-16.7l1.4-8h12.8l1.8-10.3h-12.8l1.2-7.1L288.1,29.9z"/>
<path class="st1" d="M212,23.1l-11.6,2.7l10.1-25.7l-30.2,39l14.4-2.8l-13.6,26.6L189,61l-8,19l25-27l-9.2,2.1L212,23.1z"/>
</svg>
